<svg width="150" height="235" viewBox="0 0 150 235" fill="none" xmlns="http://www.w3.org/2000/svg">
<path d="M75.0004 0C33.5762 0 0 33.5762 0 75.0004C0 92.8636 6.28118 109.242 16.7181 122.118C20.0823 126.261 25.7105 132.786 28.6442 137.247C45.5367 162.91 67.2084 200.181 73.5239 230.768C74.6075 235.991 75.9135 236.082 77.3195 230.937C81.8242 214.445 93.507 178.41 117.634 140.703C120.511 136.207 126.344 129.914 129.965 125.996C135.21 120.315 139.575 113.813 142.892 106.722C147.414 97.0505 150 86.3432 150 75.0092C150 33.5802 116.424 0 75.0004 0ZM75.0004 115.523C51.8795 115.523 33.1368 96.78 33.1368 73.6592C33.1368 50.5423 51.8795 31.8004 75.0004 31.8004C98.1213 31.8004 116.864 50.5431 116.864 73.6592C116.864 96.7808 98.1213 115.523 75.0004 115.523Z" fill="#E44C4C"/>
<path d="M75.0011 89.594C84.6165 89.594 92.4114 81.7991 92.4114 72.1837C92.4114 62.5683 84.6165 54.7734 75.0011 54.7734C65.3857 54.7734 57.5908 62.5683 57.5908 72.1837C57.5908 81.7991 65.3857 89.594 75.0011 89.594Z" fill="#E44C4C"/>
</svg>
