<svg width="40" height="28" viewBox="0 0 40 28" fill="none" xmlns="http://www.w3.org/2000/svg">
<rect x="0.5" y="0.925781" width="39" height="26.4286" fill="white" stroke="#D9D9D9"/>
<path d="M22.9654 14.2837C22.9654 18.6407 19.4738 22.1728 15.1668 22.1728C10.8597 22.1728 7.36816 18.6407 7.36816 14.2837C7.36816 9.92661 10.8597 6.39453 15.1668 6.39453C19.4738 6.39453 22.9654 9.92661 22.9654 14.2837Z" fill="#ED0006"/>
<path d="M33.0825 14.2837C33.0825 18.6407 29.591 22.1728 25.2839 22.1728C20.9769 22.1728 17.4854 18.6407 17.4854 14.2837C17.4854 9.92661 20.9769 6.39453 25.2839 6.39453C29.591 6.39453 33.0825 9.92661 33.0825 14.2837Z" fill="#0099DF"/>
<path fill-rule="evenodd" clip-rule="evenodd" d="M20.2254 8.27734C21.9021 9.72435 22.9654 11.8775 22.9654 14.2818C22.9654 16.6862 21.9021 18.8393 20.2254 20.2863C18.5486 18.8393 17.4854 16.6862 17.4854 14.2818C17.4854 11.8775 18.5486 9.72435 20.2254 8.27734Z" fill="#6C6BBD"/>
</svg>
