<svg width="40" height="28" viewBox="0 0 40 28" fill="none" xmlns="http://www.w3.org/2000/svg">
<rect x="0.5" y="0.925781" width="39" height="26.4286" fill="white" stroke="#D9D9D9"/>
<path d="M17.1426 26.7121L38.8569 20.1406V23.7121C38.8569 25.3689 37.5137 26.7121 35.8569 26.7121H17.1426Z" fill="#FD6020"/>
<path fill-rule="evenodd" clip-rule="evenodd" d="M34.7355 10.8376C35.9301 10.8376 36.5872 11.3902 36.5872 12.4341C36.6469 13.2323 36.1093 13.9077 35.3925 14.0305L37.0053 16.3024H35.7509L34.3771 14.0919H34.2576V16.3024H33.2422V10.8376H34.7355ZM34.2576 13.3551H34.5563C35.2133 13.3551 35.512 13.0481 35.512 12.4955C35.512 12.0043 35.2133 11.6973 34.5563 11.6973H34.2576V13.3551ZM29.7181 16.3024H32.5852V15.3814H30.7335V13.9077H32.5254V12.9867H30.7335V11.7586H32.5852V10.8376H29.7181V16.3024ZM26.7315 14.5217L25.3577 10.8376H24.2826L26.4926 16.4252H27.0302L29.2402 10.8376H28.1651L26.7315 14.5217ZM14.6061 13.6007C14.6061 15.1358 15.8007 16.4252 17.294 16.4252C17.7719 16.4252 18.19 16.3024 18.6081 16.1182V14.8902C18.3094 15.2586 17.8913 15.5042 17.4135 15.5042C16.4578 15.5042 15.6813 14.7674 15.6813 13.7849V13.6621C15.6215 12.6797 16.3981 11.8201 17.3538 11.7587C17.8316 11.7587 18.3094 12.0043 18.6081 12.3727V11.1446C18.2497 10.899 17.7719 10.8376 17.3538 10.8376C15.8007 10.7148 14.6061 12.0043 14.6061 13.6007ZM12.7544 12.9253C12.1571 12.6797 11.9779 12.5569 11.9779 12.2499C12.0377 11.8815 12.3363 11.5744 12.6947 11.6358C12.9934 11.6358 13.292 11.8201 13.531 12.0657L14.0685 11.3288C13.6504 10.9604 13.1128 10.7148 12.5753 10.7148C11.739 10.6534 11.0222 11.3288 10.9625 12.1885V12.2499C10.9625 12.9867 11.2612 13.4165 12.2169 13.7235C12.4558 13.7849 12.6947 13.9077 12.9336 14.0305C13.1128 14.1533 13.2323 14.3375 13.2323 14.5832C13.2323 15.013 12.8739 15.3814 12.5155 15.3814H12.4558C11.9779 15.3814 11.5598 15.0744 11.3806 14.6446L10.7236 15.32C11.082 15.9954 11.7988 16.3638 12.5155 16.3638C13.4712 16.4252 14.2477 15.6884 14.3075 14.706V14.5218C14.2477 13.7849 13.9491 13.4165 12.7544 12.9253ZM9.29005 16.3024H10.3055V10.8376H9.29005V16.3024ZM4.57129 10.8376H6.06457H6.36322C7.79677 10.899 8.93166 12.1271 8.87193 13.6007C8.87193 14.399 8.51354 15.1358 7.91623 15.6884C7.37865 16.1182 6.72161 16.3638 6.06457 16.3024H4.57129V10.8376ZM5.88537 15.3814C6.36322 15.4428 6.9008 15.2586 7.25919 14.9516C7.61758 14.5831 7.79677 14.0919 7.79677 13.5393C7.79677 13.0481 7.61758 12.5569 7.25919 12.1885C6.9008 11.8814 6.36322 11.6972 5.88537 11.7586H5.58672V15.3814H5.88537Z" fill="black"/>
<path fill-rule="evenodd" clip-rule="evenodd" d="M21.6549 10.7109C20.1616 10.7109 18.9072 11.939 18.9072 13.5354C18.9072 15.0705 20.1018 16.3599 21.6549 16.4213C23.2079 16.4827 24.4025 15.1933 24.4622 13.5968C24.4025 12.0004 23.2079 10.7109 21.6549 10.7109V10.7109Z" fill="#FD6020"/>
</svg>
