<svg width="40" height="28" viewBox="0 0 40 28" fill="none" xmlns="http://www.w3.org/2000/svg">
<rect x="0.5" y="0.925781" width="39" height="26.4286" fill="white" stroke="#D9D9D9"/>
<path fill-rule="evenodd" clip-rule="evenodd" d="M12.1429 19.0072H9.71965L7.90253 12.0748C7.81628 11.7559 7.63315 11.474 7.36377 11.3411C6.6915 11.0072 5.95071 10.7414 5.14258 10.6074V10.3405H9.0462C9.58496 10.3405 9.98903 10.7414 10.0564 11.2071L10.9992 16.2076L13.4212 10.3405H15.7771L12.1429 19.0072ZM17.124 19.0072H14.8355L16.72 10.3405H19.0085L17.124 19.0072ZM21.9693 12.7414C22.0366 12.2747 22.4407 12.0078 22.9121 12.0078C23.6529 11.9407 24.4599 12.0748 25.1333 12.4075L25.5374 10.5416C24.8639 10.2747 24.1231 10.1406 23.4509 10.1406C21.2297 10.1406 19.6134 11.3411 19.6134 13.0072C19.6134 14.2747 20.7583 14.9402 21.5664 15.3411C22.4407 15.7409 22.7774 16.0078 22.7101 16.4075C22.7101 17.0072 22.0366 17.2741 21.3644 17.2741C20.5562 17.2741 19.7481 17.0742 19.0085 16.7403L18.6044 18.6074C19.4126 18.9402 20.2869 19.0742 21.095 19.0742C23.5856 19.1401 25.1333 17.9408 25.1333 16.1406C25.1333 13.8737 21.9693 13.7409 21.9693 12.7414ZM33.1426 19.0072L31.3255 10.3405H29.3736C28.9696 10.3405 28.5655 10.6074 28.4308 11.0072L25.0659 19.0072H27.4218L27.8921 17.7409H30.7867L31.0561 19.0072H33.1426ZM29.7104 12.6744L30.3826 15.9408H28.4982L29.7104 12.6744Z" fill="#172B85"/>
</svg>
