<svg width="40" height="28" viewBox="0 0 40 28" fill="none" xmlns="http://www.w3.org/2000/svg">
<rect x="0.5" y="0.925781" width="39" height="26.4286" fill="#1F72CD" stroke="#D9D9D9"/>
<path fill-rule="evenodd" clip-rule="evenodd" d="M7.63556 10.1406L4 18.4226H8.35227L8.89182 17.1021H10.1251L10.6647 18.4226H15.4553V17.4148L15.8822 18.4226H18.3603L18.7871 17.3935V18.4226H28.7503L29.9618 17.1364L31.0962 18.4226L36.2135 18.4333L32.5665 14.3047L36.2135 10.1406H31.1756L29.9963 11.4031L28.8976 10.1406H18.0589L17.1282 12.2783L16.1757 10.1406H11.8325V11.1142L11.3493 10.1406H7.63556ZM22.5135 11.3167H28.2349L29.9848 13.2625L31.7911 11.3167H33.541L30.8822 14.3036L33.541 17.2561H31.7117L29.9618 15.2876L28.1463 17.2561H22.5135V11.3167ZM23.9264 13.632V12.5471V12.5461H27.4964L29.0541 14.2811L27.4273 16.0256H23.9264V14.8412H27.0476V13.632H23.9264ZM8.4777 11.3167H10.5992L13.0107 16.9327V11.3167H15.3347L17.1973 15.3434L18.9138 11.3167H21.2262V17.2596H19.8192L19.8077 12.6028L17.7564 17.2596H16.4977L14.4349 12.6028V17.2596H11.5403L10.9915 15.9272H8.02672L7.47909 17.2584H5.92819L8.4777 11.3167ZM8.53296 14.6956L9.50973 12.3222L10.4854 14.6956H8.53296Z" fill="white"/>
</svg>
