<svg width="40" height="28" viewBox="0 0 40 28" fill="none" xmlns="http://www.w3.org/2000/svg">
<rect x="0.5" y="0.925781" width="39" height="26.4286" fill="white" stroke="#D9D9D9"/>
<path fill-rule="evenodd" clip-rule="evenodd" d="M11.3142 17.8477H9.53631C9.41465 17.8477 9.31118 17.9361 9.29221 18.0561L8.57315 22.6151C8.55886 22.7051 8.62853 22.7861 8.71978 22.7861H9.56854C9.6902 22.7861 9.79367 22.6977 9.81264 22.5774L10.0066 21.3478C10.0253 21.2274 10.129 21.1391 10.2504 21.1391H10.8132C11.9844 21.1391 12.6602 20.5724 12.8368 19.4493C12.9163 18.958 12.8402 18.572 12.61 18.3016C12.3574 18.0048 11.9092 17.8477 11.3142 17.8477ZM11.5193 19.5127C11.4221 20.1507 10.9346 20.1507 10.4633 20.1507H10.195L10.3833 18.9592C10.3944 18.8873 10.4568 18.8342 10.5296 18.8342H10.6526C10.9736 18.8342 11.2765 18.8342 11.433 19.0172C11.5262 19.1265 11.5549 19.2886 11.5193 19.5127ZM16.6286 19.4923H15.7772C15.7047 19.4923 15.642 19.5453 15.6308 19.6174L15.5931 19.8555L15.5336 19.7692C15.3493 19.5017 14.9383 19.4123 14.5281 19.4123C13.5872 19.4123 12.7838 20.1248 12.6272 21.1244C12.5459 21.6229 12.6615 22.0997 12.9444 22.4322C13.2038 22.7379 13.5751 22.8653 14.0167 22.8653C14.7747 22.8653 15.1952 22.3778 15.1952 22.3778L15.1572 22.6145C15.1429 22.7049 15.2125 22.786 15.3032 22.786H16.0701C16.1921 22.786 16.295 22.6976 16.3142 22.5773L16.7744 19.6634C16.7889 19.5737 16.7195 19.4923 16.6286 19.4923ZM15.4418 21.1493C15.3596 21.6357 14.9736 21.9622 14.4813 21.9622C14.2341 21.9622 14.0364 21.8829 13.9096 21.7327C13.7838 21.5835 13.7359 21.371 13.776 21.1345C13.8527 20.6522 14.2453 20.3152 14.7301 20.3152C14.9718 20.3152 15.1684 20.3954 15.2978 20.547C15.4275 20.7001 15.479 20.9138 15.4418 21.1493ZM20.3073 19.4922H21.1628C21.2827 19.4922 21.3526 19.6265 21.2845 19.7248L18.439 23.8322C18.3929 23.8987 18.317 23.9383 18.2359 23.9383H17.3814C17.2611 23.9383 17.1909 23.8028 17.2605 23.7043L18.1465 22.4536L17.2042 19.6881C17.1716 19.592 17.2426 19.4922 17.3448 19.4922H18.1855C18.2947 19.4922 18.3911 19.5639 18.4226 19.6684L18.9227 21.3387L20.1027 19.6006C20.1489 19.5327 20.2257 19.4922 20.3073 19.4922Z" fill="#253B80"/>
<path fill-rule="evenodd" clip-rule="evenodd" d="M29.5827 22.6114L30.3124 17.9691C30.3236 17.897 30.386 17.844 30.4585 17.8438H31.28C31.3707 17.8438 31.4403 17.9251 31.426 18.0151L30.7065 22.5737C30.6877 22.694 30.5843 22.7825 30.4624 22.7825H29.7288C29.6381 22.7825 29.5684 22.7014 29.5827 22.6114ZM23.9949 17.844H22.2167C22.0953 17.844 21.9919 17.9324 21.9729 18.0525L21.2538 22.6114C21.2395 22.7014 21.3092 22.7825 21.4 22.7825H22.3124C22.3972 22.7825 22.4697 22.7206 22.4829 22.6364L22.687 21.3441C22.7057 21.2237 22.8094 21.1354 22.9308 21.1354H23.4933C24.6647 21.1354 25.3405 20.5687 25.5172 19.4457C25.5969 18.9544 25.5203 18.5683 25.2903 18.2979C25.0378 18.0011 24.5899 17.844 23.9949 17.844ZM24.2 19.5091C24.103 20.147 23.6156 20.147 23.144 20.147H22.876L23.0645 18.9556C23.0757 18.8836 23.1375 18.8306 23.2105 18.8306H23.3335C23.6543 18.8306 23.9575 18.8306 24.1139 19.0136C24.2072 19.1228 24.2356 19.285 24.2 19.5091ZM29.3088 19.4886H28.4581C28.3849 19.4886 28.3228 19.5417 28.3119 19.6137L28.2742 19.8518L28.2144 19.7656C28.0301 19.498 27.6194 19.4086 27.2092 19.4086C26.2683 19.4086 25.4651 20.1212 25.3086 21.1208C25.2275 21.6193 25.3426 22.096 25.6254 22.4285C25.8854 22.7342 26.2562 22.8616 26.6978 22.8616C27.4558 22.8616 27.8762 22.3742 27.8762 22.3742L27.8383 22.6108C27.8239 22.7013 27.8936 22.7823 27.9849 22.7823H28.7515C28.8729 22.7823 28.9763 22.6939 28.9953 22.5736L29.4557 19.6597C29.4698 19.5701 29.4001 19.4886 29.3088 19.4886ZM28.1222 21.1457C28.0405 21.632 27.654 21.9585 27.1616 21.9585C26.9148 21.9585 26.7168 21.8792 26.5899 21.729C26.4641 21.5798 26.4168 21.3674 26.4564 21.1309C26.5335 20.6486 26.9255 20.3115 27.4104 20.3115C27.6522 20.3115 27.8486 20.3917 27.9782 20.5433C28.1083 20.6964 28.1598 20.9101 28.1222 21.1457Z" fill="#179BD7"/>
<path d="M17.8939 16.213L18.1125 14.8247L17.6256 14.8134H15.3008L16.9164 4.56903C16.9214 4.5381 16.9377 4.50927 16.9615 4.48879C16.9854 4.46832 17.0159 4.45703 17.0477 4.45703H20.9677C22.2691 4.45703 23.1671 4.72784 23.6361 5.26235C23.8559 5.51311 23.9959 5.77513 24.0636 6.0635C24.1346 6.36608 24.1359 6.72757 24.0665 7.16847L24.0615 7.20065V7.48316L24.2814 7.6077C24.4665 7.70591 24.6135 7.81833 24.7264 7.94705C24.9145 8.16144 25.0361 8.43392 25.0875 8.75696C25.1406 9.08921 25.123 9.48456 25.0361 9.93215C24.9358 10.447 24.7736 10.8954 24.5547 11.2624C24.3532 11.6005 24.0966 11.8808 23.792 12.0982C23.5011 12.3047 23.1555 12.4614 22.7647 12.5617C22.386 12.6603 21.9544 12.7101 21.4809 12.7101H21.1758C20.9577 12.7101 20.7457 12.7886 20.5795 12.9295C20.4127 13.0733 20.3023 13.2696 20.2685 13.4844L20.2455 13.6094L19.8593 16.0562L19.8418 16.1461C19.8372 16.1746 19.8293 16.1888 19.8176 16.1984C19.8071 16.2071 19.7921 16.213 19.7774 16.213H17.8939Z" fill="#253B80"/>
<path d="M24.4893 7.23438C24.4776 7.30918 24.4643 7.38565 24.4492 7.46422C23.9322 10.1184 22.1636 11.0353 19.9047 11.0353H18.7547C18.4784 11.0353 18.2457 11.2359 18.2026 11.5084L17.6137 15.2429L17.447 16.3015C17.419 16.4804 17.5569 16.6417 17.7374 16.6417H19.7773C20.0189 16.6417 20.224 16.4662 20.262 16.228L20.2821 16.1243L20.6662 13.687L20.6909 13.5533C20.7284 13.3143 20.934 13.1387 21.1756 13.1387H21.4807C23.457 13.1387 25.0042 12.3363 25.4564 10.0144C25.6453 9.04436 25.5475 8.23445 25.0476 7.66482C24.8964 7.49306 24.7087 7.35055 24.4893 7.23438Z" fill="#179BD7"/>
<path d="M23.9481 7.02149C23.8692 6.9985 23.7876 6.9776 23.704 6.9588C23.62 6.94042 23.5339 6.92412 23.4453 6.90991C23.1352 6.85976 22.7955 6.83594 22.4315 6.83594H19.359C19.2833 6.83594 19.2115 6.85307 19.1471 6.884C19.0054 6.95211 18.9001 7.08627 18.8746 7.25051L18.2209 11.3904L18.2021 11.5112C18.2452 11.2387 18.478 11.0381 18.7542 11.0381H19.9043C22.1632 11.0381 23.9318 10.1208 24.4488 7.46699C24.4642 7.38842 24.4772 7.31194 24.4888 7.23714C24.3581 7.16776 24.2164 7.10842 24.0638 7.05785C24.0263 7.04531 23.9874 7.0332 23.9481 7.02149Z" fill="#222D65"/>
<path d="M18.8752 7.24879C18.9007 7.08454 19.0061 6.95039 19.1477 6.88269C19.2125 6.85176 19.284 6.83463 19.3595 6.83463H22.4322C22.7962 6.83463 23.1359 6.85845 23.4459 6.9086C23.5346 6.92281 23.6207 6.93911 23.7047 6.95749C23.7883 6.9763 23.8697 6.9972 23.9488 7.02018C23.988 7.03188 24.0269 7.044 24.0649 7.05612C24.2174 7.10669 24.3591 7.16645 24.4899 7.23541C24.6438 6.25456 24.4887 5.58673 23.9584 4.982C23.3737 4.31627 22.3185 4.03125 20.9682 4.03125H17.0481C16.7722 4.03125 16.537 4.23184 16.4943 4.50474L14.8616 14.8544C14.8294 15.0592 14.9873 15.244 15.1938 15.244H17.614L18.2216 11.3887L18.8752 7.24879Z" fill="#253B80"/>
</svg>
